<?xml version="1.0" standalone="no"?>
<!DOCTYPE svg PUBLIC "-//W3C//DTD SVG 20010904//EN"
 "http://www.w3.org/TR/2001/REC-SVG-20010904/DTD/svg10.dtd">
<svg version="1.0" xmlns="http://www.w3.org/2000/svg"
 width="700.000000pt" height="700.000000pt" viewBox="0 0 700.000000 700.000000"
 preserveAspectRatio="xMidYMid meet">
<metadata>
Created by potrace 1.11, written by Peter Selinger 2001-2013
</metadata>
<g transform="translate(0.000000,700.000000) scale(0.100000,-0.100000)"
fill="#000000" stroke="none">
<path d="M1344 6307 c-621 -621 -773 -777 -839 -858 -125 -153 -237 -350 -310
-544 -39 -106 -90 -297 -100 -380 -4 -27 -10 -66 -15 -87 -4 -20 -6 -128 -5
-240 3 -198 5 -231 19 -293 3 -16 8 -43 10 -60 15 -111 86 -324 164 -489 60
-127 60 -126 76 -36 10 55 16 73 49 154 58 142 159 273 284 368 356 269 847
233 1165 -84 115 -114 191 -250 233 -413 20 -77 23 -110 21 -225 -2 -74 -6
-146 -10 -160 -30 -125 -92 -261 -159 -350 -82 -111 -218 -225 -321 -271 -25
-11 -47 -23 -50 -28 -3 -4 27 -14 67 -21 40 -8 79 -15 87 -17 87 -17 197 -26
330 -25 124 0 173 3 270 17 570 78 1096 417 1391 896 19 30 40 64 47 75 59 90
164 351 201 499 25 102 29 124 50 305 9 76 7 322 -4 395 -4 28 -8 61 -10 75
-55 370 -223 728 -476 1010 -63 71 -1375 1388 -1450 1457 l-24 21 -691 -691z"/>
<path d="M5344 4178 c-250 -251 -461 -472 -487 -509 -74 -105 -157 -283 -173
-369 -3 -14 -9 -38 -14 -55 -12 -41 -23 -154 -22 -246 1 -361 168 -690 463
-912 42 -31 79 -57 83 -57 3 0 23 -11 44 -24 49 -32 175 -82 265 -106 384 -98
792 10 1075 282 75 73 95 97 158 190 89 129 158 303 181 453 10 62 10 304 0
366 -11 76 -56 217 -92 297 -78 167 -124 221 -590 690 -242 243 -442 442 -445
442 -3 0 -204 -199 -446 -442z"/>
<path d="M3526 1306 c-123 -123 -244 -248 -269 -279 -44 -55 -97 -155 -111
-212 -5 -16 -10 -39 -13 -50 -3 -11 -7 -60 -9 -110 -5 -141 30 -263 106 -374
48 -71 101 -124 170 -170 117 -79 233 -111 380 -106 461 16 747 505 538 920
-16 33 -45 78 -63 100 -35 43 -493 505 -500 505 -3 0 -105 -101 -229 -224z"/>
</g>
</svg>
