<?xml version="1.0" encoding="iso-8859-1"?>
<!-- Generator: Adobe Illustrator 19.0.0, SVG Export Plug-In . SVG Version: 6.00 Build 0)  -->
<svg xmlns="http://www.w3.org/2000/svg" xmlns:xlink="http://www.w3.org/1999/xlink" version="1.1" id="Capa_1" x="0px" y="0px" viewBox="0 0 55.071 55.071" style="enable-background:new 0 0 55.071 55.071;" xml:space="preserve" width="128px" height="128px">
<g>
	<path d="M51.902,25.05l-6.364-6.363l-6.364,6.363c-3.509,3.51-3.509,9.219,0,12.729c1.7,1.7,3.961,2.636,6.364,2.636   s4.664-0.936,6.364-2.636C55.411,34.269,55.411,28.56,51.902,25.05z" fill="#FFFFFF"/>
	<path d="M29.538,43l-3.535,3.535c-1.949,1.949-1.949,5.122,0,7.071c0.943,0.944,2.199,1.465,3.535,1.465s2.592-0.521,3.535-1.465   c1.949-1.949,1.949-5.122,0-7.071L29.538,43z" fill="#FFFFFF"/>
	<path d="M31.538,21.92c0-4.14-1.612-8.032-4.54-10.96L16.038,0L5.078,10.96c-2.928,2.928-4.54,6.82-4.54,10.96   c0,2.743,0.721,5.37,2.05,7.687c0.402-3.48,3.364-6.193,6.95-6.193c3.859,0,7,3.141,7,7c0,2.941-1.826,5.46-4.402,6.495   c1.261,0.326,2.566,0.511,3.902,0.511c4.141,0,8.033-1.612,10.96-4.54C29.925,29.953,31.538,26.061,31.538,21.92z" fill="#FFFFFF"/>
</g>
</svg>
